<svg xmlns="http://www.w3.org/2000/svg" xmlns:svgjs="http://svgjs.com/svgjs" xmlns:xlink="http://www.w3.org/1999/xlink" width="288" height="288"><svg xmlns="http://www.w3.org/2000/svg" width="288" height="288" viewBox="0 0 512 512"><path d="M131 388c-19.3 0-35-15.7-35-35v-5h10v5c0 13.8 11.2 25 25 25s25-11.2 25-25v-65H96v-10h65c2.8 0 5 2.2 5 5v70c0 19.3-15.7 35-35 35zm106.6 1.2L211 300.4l-26.6 88.8-9.6-2.9 31.4-104.8c.6-2.1 2.6-3.6 4.8-3.6s4.2 1.4 4.8 3.6l31.4 104.8-9.6 2.9z" class="color000 svgShape"/><path d="M196 328h30v10h-30zM321 388c-1.7 0-3.4-.9-4.3-2.4L266 301.1V388h-10V283c0-2.2 1.5-4.2 3.7-4.8 2.2-.6 4.5.3 5.6 2.2l50.7 84.5V278h10v105c0 2.2-1.5 4.2-3.7 4.8-.4.1-.9.2-1.3.2zM423.27 192.317l9.897 1.427-45.264 313.954-9.897-1.427z" class="color000 svgShape"/><path d="M507 512H5c-1.5 0-2.8-.6-3.8-1.7s-1.4-2.6-1.2-4l62-430c.4-2.5 2.5-4.3 4.9-4.3h378c2.5 0 4.6 1.8 4.9 4.3l62 430c.2 1.4-.2 2.9-1.2 4-.8 1.1-2.1 1.7-3.6 1.7zM10.8 502h490.5L440.7 82H71.3L10.8 502z" class="color000 svgShape"/><path d="M503.5 510.6 445 454l-58.5 56.6-7-7.2 62-60c1.9-1.9 5-1.9 7 0l62 60-7 7.2zM431.2 178h-358v-10h353.7l13.2-91.7 9.9 1.4-13.8 96c-.4 2.5-2.6 4.3-5 4.3z" class="color000 svgShape"/><path d="M256 128.8c-27.6 0-50-28.9-50-64.4S228.4 0 256 0s50 28.9 50 64.4c0 4.3-.3 8.6-1 12.7l-9.9-1.5c.6-3.7.9-7.4.9-11.2 0-30-17.9-54.4-40-54.4s-40 24.4-40 54.4 17.9 54.4 40 54.4v10z" class="color000 svgShape"/><path d="M166 128.8c-27.6 0-50-28.9-50-64.4S138.4 0 166 0s50 28.9 50 64.4c0 4.5-.4 9-1.1 13.4l-9.9-1.6c.6-3.8.9-7.8.9-11.8 0-30-17.9-54.4-40-54.4s-40 24.4-40 54.4 17.9 54.4 40 54.4v10zM346 128.8c-27.6 0-50-28.9-50-64.4S318.4 0 346 0s50 28.9 50 64.4c0 4.3-.3 8.6-1 12.7l-9.9-1.5c.6-3.7.9-7.4.9-11.2 0-30-17.9-54.4-40-54.4s-40 24.4-40 54.4 17.9 54.4 40 54.4v10z" class="color000 svgShape"/></svg></svg>