<svg id="SvgjsSvg1201" width="288" height="288" xmlns="http://www.w3.org/2000/svg" version="1.1" xmlns:xlink="http://www.w3.org/1999/xlink" xmlns:svgjs="http://svgjs.com/svgjs"><defs id="SvgjsDefs1202"></defs><g id="SvgjsG1203"><svg xmlns="http://www.w3.org/2000/svg" data-name="Artboard 30" viewBox="0 0 64 64" width="288" height="288"><path fill="#107a8b" d="M59,48,57.265,23.715A4,4,0,0,0,53.276,20H10.724a4,4,0,0,0-3.989,3.715L5,48Z" class="colore2e7f7 svgShape"></path><path fill="#f0f9ed" d="M57.265,23.715A4,4,0,0,0,53.276,20H10.724a4,4,0,0,0-3.989,3.715L6.5,27H24.19A5.81,5.81,0,0,1,30,32.81v5.38A5.81,5.81,0,0,0,35.81,44h22.9Z" class="coloredf2f9 svgShape"></path><path fill="#83e85a" d="M24,48H60a2,2,0,0,1,2,2V60a2,2,0,0,1-2,2H4a2,2,0,0,1-2-2V50a2,2,0,0,1,2-2H24Z" class="color999eaa svgShape"></path><rect width="30" height="13" x="25" y="2" fill="#107a8b" rx="1" class="colore2e7f7 svgShape"></rect><rect width="22" height="5" x="29" y="6" fill="#2cb978" class="color76d8ff svgShape"></rect><rect width="8" height="5" x="36" y="15" fill="#d2e2cc" class="colorccd2e2 svgShape"></rect><rect width="16" height="4" x="10" y="31" fill="#83e85a" rx="2" class="color999eaa svgShape"></rect><circle cx="35" cy="26" r="2" fill="#3b5441" class="color686869 svgShape"></circle><circle cx="35" cy="34" r="2" fill="#3b5441" class="color686869 svgShape"></circle><circle cx="35" cy="42" r="2" fill="#3b5441" class="color686869 svgShape"></circle><circle cx="43" cy="26" r="2" fill="#3b5441" class="color686869 svgShape"></circle><circle cx="43" cy="34" r="2" fill="#3b5441" class="color686869 svgShape"></circle><circle cx="43" cy="42" r="2" fill="#3b5441" class="color686869 svgShape"></circle><circle cx="51" cy="26" r="2" fill="#3b5441" class="color686869 svgShape"></circle><circle cx="51" cy="34" r="2" fill="#3b5441" class="color686869 svgShape"></circle><circle cx="51" cy="42" r="2" fill="#3b5441" class="color686869 svgShape"></circle><path fill="#eaefe8" d="M24,35V52l-3,4H14a2,2,0,0,1-2-2V35Z" class="colore8eaef svgShape"></path><rect width="6" height="2" x="15" y="38" fill="#83e85a" class="color999eaa svgShape"></rect><rect width="6" height="2" x="15" y="42" fill="#83e85a" class="color999eaa svgShape"></rect><rect width="6" height="2" x="15" y="46" fill="#83e85a" class="color999eaa svgShape"></rect><path fill="#f6fcf3" d="M14,56H27a2,2,0,0,0,2-2V52H16v2a2,2,0,0,1-2,2" class="colorf3f5fc svgShape"></path><path fill="#ffffff" d="M40.2 16H44a0 0 0 010 0v4a0 0 0 010 0H38a0 0 0 010 0V18.2A2.2 2.2 0 0140.2 16zM37.951 13H55V3a1 1 0 00-1-1H32V7.049A5.951 5.951 0 0037.951 13z" opacity=".3" class="colorfff svgShape"></path><path fill="#afbaaa" d="M60,48H32v5.147A6.853,6.853,0,0,0,38.853,60H62V50A2,2,0,0,0,60,48Z" class="coloraaafba svgShape"></path><circle cx="51" cy="55" r="3" fill="#3b5441" class="color686869 svgShape"></circle><path d="M60,47h-.069L58.263,23.644A5.018,5.018,0,0,0,53.275,19H45V16h9a2,2,0,0,0,2-2V3a2,2,0,0,0-2-2H26a2,2,0,0,0-2,2V14a2,2,0,0,0,2,2h9v3H10.725a5.018,5.018,0,0,0-4.988,4.644L4.069,47H4a3,3,0,0,0-3,3V60a3,3,0,0,0,3,3H60a3,3,0,0,0,3-3V50A3,3,0,0,0,60,47ZM26,3H54V14H26ZM37,16h6v3H37ZM7.732,23.786A3.011,3.011,0,0,1,10.725,21h42.55a3.011,3.011,0,0,1,2.993,2.786L57.926,47H25V35.816A2.993,2.993,0,0,0,24,30H12a2.993,2.993,0,0,0-1,5.816V47H6.074ZM28,53v1a1,1,0,0,1-1,1H16.829A3,3,0,0,0,17,54V53ZM16,51a1,1,0,0,0-1,1v2a1,1,0,0,1-2,0V36H23V51Zm8-17H12a1,1,0,0,1,0-2H24a1,1,0,0,1,0,2ZM61,60a1,1,0,0,1-1,1H4a1,1,0,0,1-1-1V50a1,1,0,0,1,1-1h7v5a3,3,0,0,0,3,3H27a3,3,0,0,0,3-3V52a1,1,0,0,0-1-1H25V49H60a1,1,0,0,1,1,1Z" fill="#000000" class="color000 svgShape"></path><path d="M51 51a4 4 0 104 4A4 4 0 0051 51zm0 6a2 2 0 112-2A2 2 0 0151 57zM51 5H29a1 1 0 00-1 1v5a1 1 0 001 1H51a1 1 0 001-1V6A1 1 0 0051 5zm-1 5H30V7H50zM35 29a3 3 0 10-3-3A3 3 0 0035 29zm0-4a1 1 0 11-1 1A1 1 0 0135 25zM35 37a3 3 0 10-3-3A3 3 0 0035 37zm0-4a1 1 0 11-1 1A1 1 0 0135 33zM35 45a3 3 0 10-3-3A3 3 0 0035 45zm0-4a1 1 0 11-1 1A1 1 0 0135 41zM43 29a3 3 0 10-3-3A3 3 0 0043 29zm0-4a1 1 0 11-1 1A1 1 0 0143 25zM43 37a3 3 0 10-3-3A3 3 0 0043 37zm0-4a1 1 0 11-1 1A1 1 0 0143 33zM43 45a3 3 0 10-3-3A3 3 0 0043 45zm0-4a1 1 0 11-1 1A1 1 0 0143 41zM51 29a3 3 0 10-3-3A3 3 0 0051 29zm0-4a1 1 0 11-1 1A1 1 0 0151 25zM51 37a3 3 0 10-3-3A3 3 0 0051 37zm0-4a1 1 0 11-1 1A1 1 0 0151 33zM51 45a3 3 0 10-3-3A3 3 0 0051 45zm0-4a1 1 0 11-1 1A1 1 0 0151 41z" fill="#000000" class="color000 svgShape"></path><rect width="6" height="2" x="15" y="38" fill="#000000" class="color000 svgShape"></rect><rect width="6" height="2" x="15" y="42" fill="#000000" class="color000 svgShape"></rect><rect width="6" height="2" x="15" y="46" fill="#000000" class="color000 svgShape"></rect></svg></g></svg>