<svg xmlns="http://www.w3.org/2000/svg" xmlns:svgjs="http://svgjs.com/svgjs" xmlns:xlink="http://www.w3.org/1999/xlink" width="288" height="288"><svg xmlns="http://www.w3.org/2000/svg" width="288" height="288" data-name="Layer 1" viewBox="0 0 64 64"><path fill="#f4f1de" d="M6 46a26 26 0 0 1 26-26 26 26 0 0 1 26 26" class="colorf4f1de svgShape"/><path fill="#3d405b" d="M30.51 20.04 29 14h6l-1.51 6.04M2 46h60a4 4 0 0 1-4 4H6a4 4 0 0 1-4-4Z" class="color3d405b svgShape"/><path fill="#f2cc8f" d="M55 46h-2a21 21 0 0 0-21-21v-2a23 23 0 0 1 23 23Z" class="colorf2cc8f svgShape"/></svg></svg>